<svg width="341" height="202" viewBox="0 0 341 202" fill="none" xmlns="http://www.w3.org/2000/svg">
<path d="M170.074 0.0203522C178.789 -0.255762 184.794 2.2833 188.052 7.29051C191.126 12.0146 191.104 18.0177 190.2 23.2456C189.815 25.4765 189.114 31.5725 188.459 33.6821C190.738 32.016 197.395 28.4886 200.025 27.1233C205.26 24.4068 211.771 23.3759 217.862 24.8899C224.21 26.4679 229.282 31.5379 232.576 40.5622C235.707 49.1361 234.927 55.9192 230.889 60.8445C227.071 65.5019 218.502 68.4571 212.754 69.5199C208.297 70.344 201.74 70.7564 197.761 70.7096C199.953 72.632 202.29 74.8481 204.421 77.2109C207.721 80.8694 212.175 86.6854 212.754 92.662C213.275 94.996 213.816 98.3061 212.754 100.704C211.691 103.102 209.76 105.048 207.133 106.555C196.212 112.825 187.736 114.92 181.156 113.642C174.284 112.307 168.988 103.812 166.922 98.6878C166.133 96.732 165.581 94.6736 165.199 92.6374C164.91 93.089 164.609 93.5391 164.296 93.9852C161.593 97.8412 154.631 105.428 149.63 107.481C144.513 109.582 138.466 109.693 131.568 106.853C126.269 104.671 122.294 102.364 119.536 99.8903C116.75 97.3918 115.042 94.5658 114.728 91.4428C114.134 85.541 118.469 81.2888 120.115 78.9609C121.749 76.6495 124.338 75.056 126.779 73.2677C128.25 72.1899 129.833 71.1706 131.459 70.2168C126.215 69.5538 115.707 68.0493 111.72 63.5395C107.599 58.8789 105.723 52.0477 106.798 42.6845C108.148 30.9384 111.757 23.5821 117.8 20.6025C123.815 17.6372 135.483 19.4624 140.857 22.4509C143.954 24.1729 146.957 26.3484 149.665 28.5722C149.465 27.6857 149.423 22.9088 149.29 22.004C148.591 17.2519 148.866 11.775 152.179 7.35924C155.567 2.84356 161.471 0.292954 170.074 0.0203522ZM179.211 46.5227C179.211 46.5227 202.089 6.31455 170.055 7.32945L169.314 7.35906C138.379 8.87727 159.127 42.6202 159.166 42.6845C159.106 42.6128 120.457 -3.25801 115.18 42.6845L115.094 43.4958C111.801 77.4653 152.179 64.7704 152.179 64.7704C152.179 64.7704 95.3093 83.0769 136.141 99.8903C160.712 110.008 168.313 76.5817 168.313 76.5817C168.313 76.5817 161.324 124.373 203.97 99.8903C221.104 90.0537 186.835 66.4775 186.835 66.4775C186.875 66.4835 236.382 74.0516 224.93 42.6845C212.72 9.24407 179.211 46.5227 179.211 46.5227Z" fill="white"/>
<path d="M15.5 150.6C15.5 151.8 15.8333 153.033 16.5 154.3C17.2333 155.567 18.2333 156.767 19.5 157.9C20.7667 158.967 22.2 160 23.8 161C25.4667 161.933 27.2667 162.7 29.2 163.3C30.4667 163.767 31.3333 164.333 31.8 165C32.3333 165.667 32.5333 166.367 32.4 167.1C32.3333 167.833 31.9667 168.6 31.3 169.4C30.7 170.2 29.9667 170.933 29.1 171.6C27.8333 172.533 26.5333 173.533 25.2 174.6C23.9333 175.667 22.8667 176.833 22 178.1C21.2 179.3 20.7333 180.567 20.6 181.9C20.4667 183.233 20.9333 184.633 22 186.1C23.4 188.033 24.8667 188.9 26.4 188.7C27.9333 188.5 29.3667 187.8 30.7 186.6C32.1 185.333 33.2333 183.8 34.1 182C35.0333 180.2 35.5667 178.7 35.7 177.5V153.3C35.7 150.767 35.2 148.667 34.2 147C33.2 145.267 31.9333 143.967 30.4 143.1C28.9333 142.233 27.3333 141.767 25.6 141.7C23.8667 141.567 22.2333 141.833 20.7 142.5C19.2333 143.167 18 144.2 17 145.6C16 146.933 15.5 148.6 15.5 150.6ZM54.1 184.1C53.9667 190.367 56.1333 194.767 60.6 197.3C61.0667 197.767 61.3 198.333 61.3 199C61.3 199.667 60.9 200 60.1 200H30C29.2 200 28.8333 199.7 28.9 199.1C29.0333 198.5 29.3333 197.967 29.8 197.5C31.9333 196.233 33.5 194.467 34.5 192.2C35.5 189.867 35.9667 187.167 35.9 184.1C34.9667 186.5 33.7333 188.767 32.2 190.9C30.6667 193.033 28.9667 194.9 27.1 196.5C25.3 198.033 23.3333 199.267 21.2 200.2C19.1333 201.133 17.1 201.6 15.1 201.6C12.9667 201.6 10.9667 201.233 9.1 200.5C7.3 199.833 5.73333 198.9 4.4 197.7C3.06667 196.433 2 194.967 1.2 193.3C0.4 191.567 0 189.733 0 187.8C0 185.6 0.566667 183.6 1.7 181.8C2.83333 180 4.3 178.4 6.1 177C7.96667 175.6 10.0667 174.4 12.4 173.4C14.8 172.4 17.2333 171.567 19.7 170.9C21.9667 170.3 23.9 169.767 25.5 169.3C27.1667 168.767 28 168.133 28 167.4C28 167.133 27.5 166.833 26.5 166.5C25.5 166.1 24.2333 165.667 22.7 165.2C21.2333 164.667 19.6 164.033 17.8 163.3C16 162.5 14.2667 161.533 12.6 160.4C11 159.267 9.56667 157.9 8.3 156.3C7.03333 154.633 6.23333 152.7 5.9 150.5C5.5 147.967 5.6 145.467 6.2 143C6.86667 140.533 8.1 138.333 9.9 136.4C11.7 134.4 14.0667 132.8 17 131.6C20 130.4 23.6 129.8 27.8 129.8C36.5333 129.8 43.1 132.367 47.5 137.5C51.9667 142.567 54.1667 149.867 54.1 159.4V184.1Z" fill="white"/>
<path d="M62.7977 199.8C63.9977 197.533 64.8643 194.733 65.3977 191.4C65.9977 188 66.2977 183.7 66.2977 178.5V151.5C66.2977 146.3 65.9977 142.033 65.3977 138.7C64.8643 135.3 63.9977 132.467 62.7977 130.2V130H93.2977C96.4977 130 99.431 130.4 102.098 131.2C104.764 132 107.031 133.133 108.898 134.6C110.831 136 112.331 137.667 113.398 139.6C114.464 141.533 114.998 143.633 114.998 145.9C114.998 148.433 114.531 150.767 113.598 152.9C112.731 155.033 111.498 156.867 109.898 158.4C108.364 159.933 106.531 161.167 104.398 162.1C102.264 162.967 99.9643 163.4 97.4977 163.4C95.231 163.4 93.131 163.267 91.1977 163C89.331 162.667 87.6977 162.4 86.2977 162.2C84.9643 161.933 83.8977 161.8 83.0977 161.8C82.2977 161.8 81.8643 162.1 81.7977 162.7C81.731 163.3 81.8643 163.833 82.1977 164.3C82.531 164.7 83.131 165.067 83.9977 165.4C84.931 165.667 86.1977 165.933 87.7977 166.2C89.3977 166.4 91.431 166.667 93.8977 167C101.364 167.933 106.998 169.767 110.798 172.5C114.598 175.167 116.498 178.8 116.498 183.4C116.498 185.733 115.931 187.9 114.798 189.9C113.664 191.9 112.098 193.667 110.098 195.2C108.098 196.667 105.764 197.833 103.098 198.7C100.431 199.567 97.5643 200 94.4977 200H62.7977V199.8ZM71.1977 159.1C71.1977 162.433 71.8643 165.7 73.1977 168.9C74.531 172.1 76.2643 174.967 78.3977 177.5C80.5977 180.033 83.031 182.067 85.6977 183.6C88.431 185.133 91.1643 185.9 93.8977 185.9C95.431 185.9 96.6643 185.467 97.5977 184.6C98.5977 183.733 99.0977 182.6 99.0977 181.2C99.0977 180 98.6977 178.933 97.8977 178C97.1643 177 96.1977 176.1 94.9977 175.3C93.7977 174.433 92.3977 173.667 90.7977 173C89.2643 172.333 87.6977 171.7 86.0977 171.1C84.5643 170.567 83.0977 170.033 81.6977 169.5C80.2977 168.967 79.031 168.4 77.8977 167.8C76.831 167.133 75.9643 166.4 75.2977 165.6C74.631 164.8 74.2977 163.867 74.2977 162.8C74.2977 161.667 74.6977 160.767 75.4977 160.1C76.2977 159.367 77.3643 158.767 78.6977 158.3C80.031 157.833 81.4977 157.433 83.0977 157.1C84.7643 156.767 86.4643 156.4 88.1977 156C89.731 155.6 91.1977 155.167 92.5977 154.7C94.0643 154.167 95.331 153.6 96.3977 153C97.531 152.333 98.431 151.6 99.0977 150.8C99.7643 150 100.098 149.1 100.098 148.1C100.098 146.3 99.0643 145.033 96.9977 144.3C94.9977 143.567 92.4977 143.2 89.4977 143.2C86.9643 143.2 84.5643 143.633 82.2977 144.5C80.0977 145.3 78.1643 146.433 76.4977 147.9C74.8977 149.3 73.5977 150.967 72.5977 152.9C71.6643 154.833 71.1977 156.9 71.1977 159.1Z" fill="white"/>
<path d="M117.48 130L147.98 130.5C153.18 130.5 157.28 131.633 160.28 133.9C163.28 136.1 164.78 138.933 164.78 142.4C164.78 144.4 164.547 146.2 164.08 147.8C163.614 149.333 163.047 150.8 162.38 152.2C161.714 153.533 161.047 154.833 160.38 156.1C159.78 157.367 159.28 158.667 158.88 160C158.547 161.267 158.447 162.667 158.58 164.2C158.714 165.667 159.247 167.333 160.18 169.2C160.647 170.267 160.48 171.1 159.68 171.7C157.68 173.1 155.547 173.833 153.28 173.9C151.08 173.9 149.047 173.5 147.18 172.7C145.38 171.9 143.847 170.767 142.58 169.3C141.38 167.833 140.78 166.267 140.78 164.6C140.78 163.333 141.18 162.267 141.98 161.4C142.78 160.533 143.78 159.8 144.98 159.2C146.18 158.533 147.447 157.967 148.78 157.5C150.18 157.033 151.48 156.567 152.68 156.1C153.88 155.567 154.88 155 155.68 154.4C156.48 153.8 156.88 153.033 156.88 152.1C156.88 148.833 153.247 147.2 145.98 147.2C142.047 147.2 138.78 147.433 136.18 147.9C133.647 148.3 131.614 148.967 130.08 149.9C128.547 150.767 127.447 151.9 126.78 153.3C126.18 154.7 125.88 156.333 125.88 158.2C125.88 160.133 126.347 161.933 127.28 163.6C128.214 165.267 129.38 166.933 130.78 168.6C132.247 170.2 133.78 171.867 135.38 173.6C137.047 175.267 138.58 177.133 139.98 179.2C141.447 181.2 142.647 183.433 143.58 185.9C144.514 188.367 144.98 191.133 144.98 194.2C144.98 198.067 143.58 200 140.78 200H117.48V199.8C118.68 197.533 119.547 194.733 120.08 191.4C120.68 188 120.98 183.7 120.98 178.5V151.5C120.98 146.3 120.68 142.033 120.08 138.7C119.547 135.3 118.68 132.467 117.48 130.2V130Z" fill="white"/>
<path d="M186.004 200C184.871 199.067 183.971 197.967 183.304 196.7C182.637 195.367 182.304 193.967 182.304 192.5C182.304 190.567 182.804 189 183.804 187.8C184.804 186.533 185.904 185.5 187.104 184.7C188.304 183.9 189.404 183.267 190.404 182.8C191.404 182.267 191.904 181.733 191.904 181.2C191.904 180.267 190.904 179.9 188.904 180.1C186.971 180.3 185.004 180.167 183.004 179.7C181.071 179.233 179.304 178.5 177.704 177.5C176.104 176.433 174.804 175.167 173.804 173.7C172.804 172.167 172.304 170.433 172.304 168.5C172.304 165.5 173.537 162.5 176.004 159.5C178.537 156.5 182.004 153.9 186.404 151.7C187.737 151.033 188.204 150.333 187.804 149.6C187.471 148.8 186.471 148.4 184.804 148.4C183.871 148.4 182.737 148.533 181.404 148.8C180.137 149.067 178.804 149.4 177.404 149.8C176.004 150.2 174.571 150.667 173.104 151.2C171.637 151.667 170.237 152.167 168.904 152.7C168.171 153.033 167.571 153.033 167.104 152.7C166.704 152.367 166.504 151.833 166.504 151.1V132.1C166.504 131.633 166.837 131.233 167.504 130.9C168.237 130.5 169.104 130.2 170.104 130C171.104 129.8 172.171 129.667 173.304 129.6C174.504 129.467 175.571 129.4 176.504 129.4C178.704 129.4 180.804 129.733 182.804 130.4C184.871 131.067 186.637 132.033 188.104 133.3C189.637 134.5 190.837 135.967 191.704 137.7C192.637 139.433 193.104 141.367 193.104 143.5C193.104 146.233 192.837 148.733 192.304 151C191.837 153.2 191.304 155.267 190.704 157.2C190.104 159.067 189.537 160.833 189.004 162.5C188.537 164.167 188.304 165.8 188.304 167.4C188.304 170 189.104 172.2 190.704 174C192.371 175.8 194.371 176.7 196.704 176.7C198.037 176.7 199.271 176.333 200.404 175.6C201.537 174.8 202.537 173.733 203.404 172.4C204.271 171.067 204.937 169.5 205.404 167.7C205.871 165.833 206.104 163.833 206.104 161.7C206.104 154.833 205.504 148.733 204.304 143.4C203.104 138 201.504 133.5 199.504 129.9L215.304 130C218.171 130 220.304 131.267 221.704 133.8C223.171 136.267 223.904 139.9 223.904 144.7C223.904 147.833 223.404 150.7 222.404 153.3C221.404 155.833 220.137 158.233 218.604 160.5C217.071 162.767 215.404 164.967 213.604 167.1C211.871 169.233 210.237 171.433 208.704 173.7C207.171 175.967 205.904 178.367 204.904 180.9C203.904 183.367 203.404 186.133 203.404 189.2C203.404 191.733 203.537 193.867 203.804 195.6C204.137 197.333 204.904 198.767 206.104 199.9V200H186.004Z" fill="white"/>
<path d="M254.8 201.6C250.8 201.6 247.033 200.7 243.5 198.9C239.967 197.1 236.867 194.667 234.2 191.6C231.533 188.467 229.367 184.8 227.7 180.6C226.1 176.4 225.2 171.867 225 167C224.8 161.867 225.367 157.033 226.7 152.5C228.033 147.9 229.933 143.9 232.4 140.5C234.867 137.1 237.8 134.4 241.2 132.4C244.6 130.4 248.267 129.4 252.2 129.4C254.4 129.4 256.4 129.533 258.2 129.8C260.067 130 261.9 130.2 263.7 130.4C265.5 130.6 267.367 130.667 269.3 130.6C271.233 130.533 273.4 130.2 275.8 129.6C276.8 129.4 277.5 129.767 277.9 130.7C278.7 133.1 279.067 135.333 279 137.4C278.933 139.4 278.5 141.167 277.7 142.7C276.9 144.167 275.733 145.333 274.2 146.2C272.667 147.067 270.8 147.5 268.6 147.5C266.267 147.5 264 147.233 261.8 146.7C259.667 146.167 257.6 145.467 255.6 144.6C253.667 143.733 251.767 142.767 249.9 141.7C248.1 140.567 246.367 139.467 244.7 138.4C243.567 137.667 242.433 137.6 241.3 138.2C240.167 138.733 239.133 139.733 238.2 141.2C237.333 142.667 236.6 144.5 236 146.7C235.4 148.9 235.1 151.267 235.1 153.8C235.1 158.4 235.7 162.5 236.9 166.1C238.167 169.7 239.9 172.767 242.1 175.3C244.367 177.833 247.033 179.767 250.1 181.1C253.167 182.433 256.533 183.1 260.2 183.1C266.467 183.1 271.7 180.867 275.9 176.4C276.3 175.933 276.8 175.867 277.4 176.2C278 176.533 278.3 177.467 278.3 179C278.3 182.2 277.7 185.167 276.5 187.9C275.3 190.633 273.633 193.033 271.5 195.1C269.367 197.1 266.867 198.7 264 199.9C261.133 201.033 258.067 201.6 254.8 201.6Z" fill="white"/>
<path d="M298.966 199.8C300.166 197.533 301.033 194.733 301.566 191.4C302.166 188 302.466 183.7 302.466 178.5V138.2C302.466 137.067 302.266 136.333 301.866 136C301.533 135.667 300.9 135.567 299.966 135.7C298.9 135.9 297.666 136.567 296.266 137.7C294.866 138.833 293.433 140.3 291.966 142.1C290.5 143.9 289.033 145.967 287.566 148.3C286.166 150.567 284.866 153 283.666 155.6C283.333 156.4 282.8 156.667 282.066 156.4C281.4 156.067 281.066 155.433 281.066 154.5V130H340.166V154.5C340.166 155.433 339.8 156.067 339.066 156.4C338.4 156.667 337.9 156.4 337.566 155.6C336.366 153 335.033 150.567 333.566 148.3C332.166 145.967 330.733 143.9 329.266 142.1C327.8 140.3 326.366 138.833 324.966 137.7C323.566 136.567 322.333 135.9 321.266 135.7C320.333 135.567 319.666 135.667 319.266 136C318.933 136.333 318.766 137.067 318.766 138.2V178.5C318.766 183.7 319.033 188 319.566 191.4C320.166 194.733 321.066 197.533 322.266 199.8V200H298.966V199.8Z" fill="white"/>
<path d="M176 56.5C176 54.2738 174.5 51 170 51C165.207 51 164 54.2738 164 56.5C164 58.7262 166.684 61 170 61V63C165.858 63 162.5 60.0899 162.5 56.5C162.5 52.9101 165.858 50 170 50C174.142 50 177.5 52.9101 177.5 56.5C177.5 60.0899 174.142 63 170 63V61C173.316 61 176 58.7262 176 56.5Z" fill="white"/>
</svg>
